<?xml version="1.0" encoding="utf-8"?>
<!-- Generator: Adobe Illustrator 25.2.1, SVG Export Plug-In . SVG Version: 6.00 Build 0)  -->
<svg version="1.1" id="レイヤー_1" xmlns="http://www.w3.org/2000/svg" xmlns:xlink="http://www.w3.org/1999/xlink" x="0px"
	 y="0px" viewBox="0 0 550 150" style="enable-background:new 0 0 550 150;" xml:space="preserve">
<style type="text/css">
	.st0{stroke:#000000;stroke-miterlimit:10;}
	.st1{fill:#39B54A;stroke:#000000;stroke-width:2;stroke-miterlimit:10;}
</style>
<g>
	<g>
		<g>
			<path d="M59.7,51.7c2.1-13.6-0.3-27.9-7.1-39.9c-0.7-1.2-2.3-0.8-2.7,0.4c-3.9,11.5-3.6,23.9-3.3,35.9c0.9-0.3,1.9-0.5,2.8-0.8
				c-7.7-12-20-21.1-34.2-23.9c-1.4-0.3-2.2,1-1.7,2.2c3.3,7.4,6.8,14.7,10.7,21.8c1.7,3.2,4.6,6.7,3.4,10.5
				c-1.1,3.4-3.3,6.4-5.2,9.3c-3.7,5.5-7.6,12.5-5.1,19.3c2.2,6.1,8.8,8.6,14.8,7.5c8.5-1.5,14.4-8.7,22.4-11.3
				c-0.6-0.5-1.3-1-1.9-1.4c0,12.4,0.1,24.8,0.1,37.2c0,3.1,0,6.3,0,9.4c0,2.2-0.5,5.4,1.3,7.2c1.8,1.8,4.2,0.6,5.4-1.3
				c1.4-2.2,2.1-5.1,2.9-7.6c2-6.4,3.6-12.9,4.7-19.5c0.3-1.9-2.6-2.7-2.9-0.8c-0.9,5.2-2,10.4-3.4,15.4c-0.7,2.5-1.5,5-2.3,7.4
				c-0.4,1.1-0.7,2.2-1.3,3.2c-0.5,0.8-0.9,1.4-1.2,0.2c-0.2-1.1-0.1-2.2-0.1-3.3c0-1.4,0-2.8,0-4.2c0-2.7,0-5.5,0-8.2
				c0-5.5,0-10.9,0-16.4c0-6.3,0-12.6-0.1-18.8c0-0.9-1-1.7-1.9-1.4c-7,2.3-12.2,7.7-19,10.3c-2.9,1.1-6,1.5-9,0.6
				c-2.8-0.9-5-3-5.8-5.8c-1.9-6.7,2.9-13,6.4-18.2c1.8-2.8,3.9-5.9,4.5-9.2c0.7-3.7-1.3-6.7-2.9-9.8c-4.2-7.7-8.1-15.7-11.7-23.7
				c-0.6,0.7-1.1,1.5-1.7,2.2c13.4,2.7,25,11.1,32.4,22.5c0.8,1.2,2.8,0.8,2.8-0.8c-0.3-11.8-0.6-23.8,3.2-35.1
				c-0.9,0.1-1.8,0.2-2.7,0.4c6.4,11.3,8.8,24.8,6.8,37.6C56.5,52.8,59.4,53.6,59.7,51.7L59.7,51.7z"/>
		</g>
	</g>
	<g>
		<g>
			<path d="M66,103.1c18.2,4,36.7,0.5,54.6-2.9c1.9-0.4,1.1-3.3-0.8-2.9c-17.4,3.3-35.4,6.8-53,2.9C64.9,99.8,64.1,102.7,66,103.1
				L66,103.1z"/>
		</g>
	</g>
	<g>
		<g>
			<path d="M122.3,93.5c0.8,5.3,1.3,10.6,1.4,16c0.1,2.7,0,5.5-0.1,8.2c-0.1,1.8-0.1,3.7,0.8,5.3c1,1.8,3.2,2.4,5,1.5
				c1.9-0.9,3.3-3,4.6-4.7c2.8-3.6,5.1-7.6,6.9-11.8c2.1-4.9,3.5-9.9,4.3-15.2c0.1-0.8-0.2-1.6-1-1.8c-0.7-0.2-1.7,0.2-1.8,1
				c-1.2,8.1-4,16-8.5,22.9c-1.1,1.7-2.3,3.3-3.6,4.8c-0.7,0.8-2.7,3.4-3.4,1.4c-0.6-1.6-0.2-3.7-0.2-5.4c0.1-2.4,0.1-4.8,0-7.3
				c-0.1-5.3-0.7-10.6-1.5-15.8C124.9,90.8,122,91.6,122.3,93.5L122.3,93.5z"/>
		</g>
	</g>
	<g>
		<g>
			<path d="M110.9,100c-0.2,6.6-0.9,13.1-1.9,19.6c-0.2,1.1,0.7,2.2,1.8,1.8c5.9-1.5,6.8-8.2,10-12.3c0.5-0.6,0.6-1.5,0-2.1
				c-0.5-0.5-1.6-0.6-2.1,0c-1.7,2.2-2.7,4.6-4,7c-1.1,1.9-2.5,3.9-4.7,4.5c0.6,0.6,1.2,1.2,1.8,1.8c1.1-6.7,1.8-13.6,2-20.4
				C114,98,111,98,110.9,100L110.9,100z"/>
		</g>
	</g>
	<g>
		<g>
			<path d="M157.6,103.1c-2.4-0.3-4.4,1.8-5.4,3.7c-1.1,2.1-2,4.3-2.9,6.5c-0.3,0.7-0.2,1.6,0.5,2.1c0.7,0.3,1.7,0.2,2.1-0.5
				c0.9-2,1.7-4,2.7-5.9c0.2-0.4,0.4-0.8,0.6-1.2c0.3-0.5,0.3-0.6,0.7-1c0.1-0.1,0.1-0.1,0.2-0.2c0.2-0.2,0,0,0.1-0.1
				c0.1-0.1,0.2-0.1,0.3-0.2c0,0,0.3-0.1,0.2-0.1c-0.1,0.1,0.2-0.1,0.2-0.1c0.1,0,0.2,0,0.3-0.1c-0.2,0,0,0,0.1,0c0.1,0,0.2,0,0.4,0
				c0.8,0.1,1.5-0.8,1.5-1.5C159.1,103.7,158.5,103.2,157.6,103.1L157.6,103.1z"/>
		</g>
	</g>
	<g>
		<g>
			<path d="M156.1,105.1c0,3.2,0,6.4,0,9.7c0,0.8,0.7,1.5,1.5,1.5c0.8,0,1.5-0.7,1.5-1.5c0-3.2,0-6.4,0-9.7c0-0.8-0.7-1.5-1.5-1.5
				C156.8,103.7,156.1,104.3,156.1,105.1L156.1,105.1z"/>
		</g>
	</g>
	<g>
		<g>
			<path d="M160.9,106.7c0,0,0.4,0,0.2,0c-0.2,0,0.1,0,0.1,0c0.2,0,0.4,0.1,0.5,0.2c-0.3-0.1,0,0,0,0c0.1,0,0.2,0.1,0.3,0.2
				c0.1,0,0.1,0.1,0.2,0.1c0,0,0.3,0.2,0.2,0.1c-0.1-0.1,0.1,0.1,0.1,0.1c0.1,0.1,0.1,0.1,0.2,0.2c0.1,0.1,0.3,0.3,0.4,0.4
				c0.1,0.1-0.1-0.2,0,0.1c0,0.1,0.1,0.1,0.1,0.2c0.1,0.2,0.2,0.4,0.3,0.6c0,0.1,0.1,0.2,0.1,0.2c-0.1-0.2,0,0.1,0.1,0.1
				c0.1,0.2,0.2,0.4,0.2,0.7c0.1,0.5,0.2,0.9,0.3,1.4c0.1,0.5,0-0.1,0,0.2c0,0.1,0,0.3,0,0.4c0,0.2,0,0.5,0.1,0.7c0,0.5,0,1,0,1.5
				c0,0.8,0.7,1.5,1.5,1.5c0.8,0,1.5-0.7,1.5-1.5c0-2.4-0.2-4.8-1.4-7c-1.1-1.9-3-3.4-5.2-3.5c-0.8,0-1.5,0.7-1.5,1.5
				C159.4,106.1,160.1,106.7,160.9,106.7L160.9,106.7z"/>
		</g>
	</g>
	<g>
		<g>
			<path d="M159.8,106.6c1.9,0,1.9-3,0-3C157.9,103.6,157.9,106.6,159.8,106.6L159.8,106.6z"/>
		</g>
	</g>
	<g>
		<g>
			<path d="M147.9,68.1c2,8.1-0.3,16.2-5.2,22.9c-1.1,1.6,1.5,3.1,2.6,1.5c5.3-7.3,7.7-16.3,5.5-25.2
				C150.4,65.5,147.5,66.3,147.9,68.1L147.9,68.1z"/>
		</g>
	</g>
	<g>
		<g>
			<path d="M37.5,72.8c2.1,0.1,4.1-0.7,5.7-2.1c0.6-0.5,0.6-1.6,0-2.1c-0.6-0.6-1.5-0.6-2.1,0c-0.1,0.1-0.3,0.2-0.4,0.3
				c0.1-0.1,0.2-0.2,0.3-0.2c-0.4,0.3-0.9,0.6-1.4,0.8c0.1-0.1,0.2-0.1,0.4-0.2c-0.5,0.2-1,0.4-1.6,0.4c0.1,0,0.3,0,0.4-0.1
				c-0.4,0.1-0.8,0.1-1.2,0c-0.8,0-1.5,0.7-1.5,1.5C36.1,72.2,36.7,72.8,37.5,72.8L37.5,72.8z"/>
		</g>
	</g>
	<g>
		<g>
			<path d="M20,79.2c3.9,1.5,7.9,2.2,12,2.9c3.6,0.6,7.3,1.6,9.1,5.1c0.9,1.7,3.5,0.2,2.6-1.5c-1.9-3.7-5.8-5.5-9.7-6.3
				c-2.2-0.4-4.5-0.7-6.7-1.1c-2.2-0.5-4.4-1.2-6.6-1.9C18.9,75.7,18.2,78.6,20,79.2L20,79.2z"/>
		</g>
	</g>
	<g>
		<g>
			<path d="M51.6,86.8c-1.7,4.1-3.3,8.3-5.3,12.2c-1.7,3.4-4.2,6.5-5.6,10c-1.2,3-1.4,6.5-0.1,9.5c1,2.2,4.8,6,6.7,2.5
				c1.8-3.5,1-9.5,5.1-11.5c1.7-0.8,0.2-3.4-1.5-2.6c-4.2,2-4.5,7.1-5.7,11.1c0,0.1-0.6,1.6-0.6,1.6c0.8-0.1,0.9-0.2,0.4-0.4
				c-0.1-0.1-0.3-0.2-0.4-0.3c-0.5-0.4-0.9-1-1.2-1.6c-0.7-1.5-0.9-3.3-0.6-4.9c0.6-4.2,3.7-7.6,5.7-11.2c2.4-4.4,4.1-9.1,6-13.7
				c0.3-0.8-0.3-1.6-1-1.8C52.6,85.5,52,86,51.6,86.8L51.6,86.8z"/>
		</g>
	</g>
	<ellipse transform="matrix(0.5452 -0.8383 0.8383 0.5452 -59.3063 61.2939)" class="st0" cx="26.8" cy="85.3" rx="1" ry="2.4"/>
	<path class="st1" d="M21.6,134.9c-1.1-3.7-0.7-5.1-0.1-5.7c0.6-0.6,1.4,0,2.9-0.5c1.6-0.5,2.5-1.7,2.8-2.1c1-1.2,1.5-2.6,1.9-5.2
		c0.6-4,1.4-8.6,0-9.3c-1.4-0.7-4.8,2.7-6.6,6.2c-0.9,1.7-1.2,3.1-1.9,3.1c-1,0-1.1-2.8-2.8-5.2c-2.4-3.2-7.3-4.6-8.5-3.1
		c-1.3,1.5,1,5.8,2.8,9.3c1.9,3.7,3.4,4.9,3.8,5.2c2.2,1.7,4.5,2,5.7,2.1"/>
	<g>
		<g>
			<path d="M57.1,52.9c4.8,7.6,14.2,7.1,22.1,7c9.6-0.1,19.1,0.1,28.7,0.3c9.5,0.3,18.9,0.7,28.4,1.2c2.1,0.1,4.4,0,6.4,0.6
				c2,0.6,3.2,2.5,4.4,4.2c2.5,3.5,5.1,7.1,6.7,11.1c3.5,9,2.8,18.9,2.2,28.3c-0.1,1.9,2.9,1.9,3,0c0.6-8.5,1.1-17.3-1.1-25.6
				c-1.1-4.2-3.1-8-5.5-11.6c-1.2-1.8-2.5-3.6-3.8-5.3c-1.2-1.6-2.5-3-4.4-3.8c-2-0.8-4.2-0.8-6.3-0.9c-2.4-0.1-4.8-0.3-7.2-0.4
				c-4.8-0.2-9.6-0.5-14.5-0.6c-9.6-0.3-19.1-0.5-28.7-0.6c-5.3,0-10.6,0.2-15.9,0c-4.5-0.2-9.3-1.5-11.8-5.5
				C58.7,49.7,56.1,51.3,57.1,52.9L57.1,52.9z"/>
		</g>
	</g>
</g>
<g>
	<path d="M193.5,75.6c-0.1-0.1-0.2-0.1-0.4-0.1c-0.1,0-0.2-0.1-0.4-0.1c-0.1,0-0.2-0.1-0.3-0.1c-0.1-0.1-0.2-0.1-0.3-0.2
		c-0.1-0.1-0.1-0.3-0.2-0.4c-0.1-0.1-0.2-0.3-0.2-0.4c0-0.2,0-0.3,0-0.5s0-0.3,0-0.5c0.3-1.8,0.7-3.6,1.2-5.3c0.5-1.8,1-3.5,1.5-5.3
		s1-3.6,1.5-5.3s1-3.5,1.6-5.3h-14l-0.9,0.4c-0.2,0.8-0.4,1.5-0.6,2.2s-0.4,1.5-0.6,2.3c-0.2,0.8-0.4,1.6-0.4,2.4
		c-0.1,0.8-0.2,1.6-0.6,2.2c-0.1,0.1-0.2,0.1-0.4,0.2s-0.3,0.2-0.4,0.2c-0.2,0-0.3,0-0.4,0s-0.3,0-0.5,0l-0.9-0.5
		c-0.1-0.2-0.2-0.4-0.3-0.5c-0.1-0.2-0.1-0.3-0.2-0.5s-0.1-0.4-0.1-0.6c0-0.2,0-0.4,0-0.6c0.2-1.6,0.6-3.3,1.1-4.9
		c0.5-1.7,0.9-3.3,1.2-4.9c0.3-1.6,0.7-3.2,1.1-4.9c0.4-1.6,0.9-3.2,1.4-4.8c0.1-0.1,0.2-0.1,0.4-0.2s0.3-0.2,0.4-0.2
		c0.2,0,0.3,0,0.4,0s0.3,0,0.5,0l0.9,0.5c0.1,0.1,0.2,0.3,0.3,0.4c0.1,0.2,0.1,0.3,0.2,0.5c0.1,0.2,0.1,0.3,0.1,0.5s0,0.4,0,0.6
		l-1.8,6.6h16.6c0.8,0.1,1.6,0.2,2.5,0.1c0.8-0.1,1.7,0,2.4,0s1.6,0.2,2.4,0.3s1.6,0.3,2.2,0.6c0.1,0.1,0.1,0.3,0.2,0.4
		c0.1,0.1,0.2,0.3,0.2,0.4c0,0.2,0,0.3,0,0.4c0,0.1,0,0.3,0,0.5l-0.5,0.9c-0.1,0.1-0.2,0.1-0.4,0.2s-0.2,0.2-0.4,0.2
		c-0.1,0-0.3,0-0.4,0s-0.3,0-0.4,0.1c-0.5-0.1-1-0.1-1.5-0.2s-1.1-0.2-1.6-0.2c-0.6,0-1.1,0-1.7,0s-1.1,0-1.7,0
		c-0.7,1.9-1.3,3.8-1.9,5.7c-0.6,1.9-1.1,3.9-1.7,5.8c-0.6,1.9-1.1,3.8-1.6,5.7c-0.5,1.9-1,3.8-1.4,5.8c-0.1,0.1-0.2,0.1-0.3,0.2
		c-0.1,0.1-0.2,0.1-0.3,0.2c-0.1,0.1-0.2,0.1-0.4,0.1S193.6,75.5,193.5,75.6z"/>
	<path d="M245.8,59l-0.9-0.5c-0.1-0.1-0.1-0.3-0.2-0.4c-0.1-0.2-0.2-0.3-0.2-0.5c0-0.2,0-0.3,0-0.5c0-0.2,0-0.3,0-0.5l1-1.8
		c0.4-0.3,0.7-0.7,1.1-1s0.7-0.8,0.9-1.2c0.3-0.4,0.6-0.8,0.8-1.2c0.3-0.4,0.5-0.8,0.7-1.3c0.1-0.5,0.3-1,0.6-1.4
		c0.2-0.4,0.5-0.8,0.7-1.3s0.5-0.9,0.7-1.3c0.2-0.4,0.5-0.8,0.8-1.3c-1.6-0.1-3.2-0.2-4.8-0.2s-3.2,0-4.8-0.1s-3.2-0.2-4.8-0.2
		c-1.6-0.1-3.2-0.1-4.8,0c-0.2,0.1-0.5,0.1-0.8,0.1c-0.2,0-0.5,0-0.8,0s-0.5,0-0.8,0s-0.5,0-0.8,0l-1.9-0.2l-1.9,0.3
		c-0.1-0.1-0.2-0.1-0.3-0.1c-0.1,0-0.2-0.1-0.3-0.1c-0.1,0-0.2-0.1-0.3-0.1c-0.1-0.1-0.2-0.1-0.3-0.2c-0.1-0.1-0.1-0.2-0.2-0.4
		c-0.1-0.1-0.2-0.3-0.2-0.4c0-0.2,0-0.3,0-0.4c0-0.1,0-0.3,0-0.5l0.5-0.9c0.4-0.2,0.8-0.4,1.2-0.5c0.4-0.1,0.8-0.1,1.3-0.2
		s0.9-0.1,1.4-0.1c0.5,0,0.9,0,1.4,0c0.1,0.1,0.3,0.1,0.4,0.1c0.2,0,0.3,0,0.5,0s0.3,0,0.5,0s0.3,0,0.5,0c0.6-0.1,1.3-0.2,2-0.2
		s1.4,0,2.2,0s1.4,0,2.2,0s1.4,0,2.1,0c1.4,0.2,2.8,0.3,4.2,0.3c1.4,0,2.8,0.1,4.2,0.1c1.4,0,2.8,0.1,4.2,0.1c1.4,0,2.7,0.3,4,0.8
		c0.1,0.1,0.1,0.3,0.2,0.4c0.1,0.1,0.2,0.3,0.2,0.4c0,0.2,0,0.3,0,0.5c0,0.2,0,0.3,0,0.5c-0.6,1.2-1.2,2.4-2,3.5
		c-0.8,1.1-1.4,2.2-1.9,3.4s-1.2,2.4-2,3.4c-0.8,1.1-1.7,2.2-2.5,3.3l-0.8,1.1c-0.1,0.1-0.2,0.1-0.4,0.2s-0.3,0.2-0.4,0.2
		c-0.2,0-0.3,0-0.4,0S246,59,245.8,59z M239.5,74.7l-0.9-0.5c-0.4-0.4-0.6-1-0.6-1.6c0-0.6,0-1.2,0-1.9c0-0.6,0-1.2,0-1.8
		c0-0.6,0-1.2,0-1.8l0.3-14.8l-0.1-1.5c0.1-0.1,0.1-0.2,0.1-0.3s0.1-0.2,0.1-0.3c0-0.1,0.1-0.2,0.1-0.3s0.1-0.2,0.2-0.3
		c0.1-0.1,0.2-0.1,0.4-0.2s0.3-0.2,0.4-0.2c0.2,0,0.3,0,0.4,0s0.3,0,0.5,0l1,0.5c0.3,0.6,0.5,1.2,0.5,1.9c0,0.7,0,1.4,0,2.1
		c0,0.7,0,1.4,0,2.2s0,1.5,0,2.2c-0.1,1.4-0.1,2.8-0.1,4.1c0,1.4,0,2.8-0.1,4.1c-0.1,1.4-0.1,2.8,0,4.1c0.1,1.4-0.1,2.7-0.5,4
		c-0.2,0.1-0.3,0.1-0.5,0.2s-0.3,0.2-0.4,0.2c-0.2,0-0.3,0-0.4,0S239.7,74.7,239.5,74.7z"/>
	<path d="M280.4,73.2l-0.9-0.5c-0.1-0.1-0.1-0.2-0.2-0.4c-0.1-0.1-0.2-0.3-0.2-0.4c0-0.2,0-0.3,0-0.5c0-0.2,0-0.3,0-0.5
		c1-2.1,2.1-4.1,3.4-6c1.2-1.9,2.5-3.9,3.8-5.9s2.6-3.9,3.9-5.8c1.3-1.9,2.6-3.9,3.8-5.9c-1.5-0.1-3-0.2-4.5-0.3
		c-1.5-0.1-3-0.2-4.5-0.2c-1.5,0-3,0-4.5,0c-1.5,0-3-0.2-4.4-0.6c-0.1-0.1-0.1-0.2-0.2-0.4c-0.1-0.1-0.2-0.3-0.2-0.4
		c0-0.2,0-0.3,0-0.4c0-0.1,0-0.3,0-0.5l0.5-0.9c0.2-0.2,0.4-0.3,0.6-0.4s0.5-0.1,0.8-0.1s0.6,0,0.8,0s0.5,0,0.8,0
		c1.6,0.1,3.3,0.1,4.9,0.1s3.3,0.1,4.9,0.2c1.6,0.2,3.2,0.3,4.9,0.3c1.6,0.1,3.2,0.4,4.7,0.9c0.1,0.1,0.1,0.3,0.2,0.4
		c0.1,0.1,0.2,0.3,0.2,0.4c0,0.2,0,0.3,0,0.5c0,0.2,0,0.3,0,0.5l-1.2,2.2c-0.6,0.7-1.2,1.4-1.6,2.2c-0.5,0.8-1,1.6-1.5,2.4
		c-0.6,0.8-1.1,1.6-1.6,2.4c-0.5,0.8-1.1,1.6-1.6,2.3v0.3c0.8,0.6,1.5,1.2,2.2,1.9c0.7,0.7,1.5,1.4,2.2,2s1.5,1.3,2.2,2
		c0.7,0.7,1.4,1.4,2.1,2.1l0.8,1.1l0.6,0.4l0.1,0.3l1.1,0.7v0.2h0.2c0.1,0.1,0.1,0.3,0.2,0.4c0.1,0.1,0.2,0.3,0.2,0.4
		c0,0.2,0,0.3,0,0.4c0,0.1,0,0.3,0,0.5l-0.5,0.9c-0.1,0.1-0.2,0.1-0.4,0.2s-0.3,0.2-0.4,0.2c-0.2,0-0.3,0-0.5,0s-0.3,0-0.5,0
		l-0.9-0.5l-1.1-0.9l-0.7-0.7c-0.6-0.8-1.3-1.6-2.1-2.2c-0.8-0.7-1.5-1.4-2.2-2.1c-0.8-0.7-1.5-1.4-2.2-2.1s-1.5-1.4-2.2-2.1h-0.3
		c-0.7,0.9-1.3,1.9-2,2.8c-0.6,0.9-1.2,1.8-1.8,2.8c-0.6,1-1.1,1.9-1.6,2.9c-0.5,1-1.1,1.9-1.7,2.9c-0.1,0.1-0.2,0.1-0.4,0.2
		s-0.3,0.2-0.4,0.2c-0.2,0-0.3,0-0.4,0S280.6,73.2,280.4,73.2z"/>
	<path d="M332.1,75.1l-0.9-0.5c-0.1-0.1-0.1-0.3-0.2-0.4c-0.1-0.2-0.2-0.3-0.2-0.5s0-0.3,0-0.5c0-0.2,0-0.3,0-0.5
		c0.3-1.4,0.7-2.8,1.1-4.2c0.4-1.4,0.8-2.8,1.2-4.2c0.3-1.4,0.7-2.8,1.1-4.2c0.4-1.4,0.8-2.8,1.2-4.3c-1.2-0.1-2.4-0.1-3.5-0.1
		c-1.2,0-2.3-0.1-3.5-0.2s-2.3-0.1-3.5-0.1c-1.2,0-2.3-0.1-3.4-0.5c-0.1-0.1-0.1-0.2-0.2-0.4c-0.1-0.1-0.2-0.3-0.2-0.4
		c0-0.2,0-0.3,0-0.4c0-0.1,0-0.3,0-0.5l0.5-0.9c0.2-0.2,0.4-0.3,0.7-0.4s0.6-0.1,0.8-0.1s0.6,0,0.8,0s0.6,0,0.9,0
		c2.2,0.1,4.5,0.2,6.8,0.3c2.2,0.1,4.5,0.2,6.8,0.3c2.3,0.1,4.6,0.2,6.8,0.5c2.2,0.3,4.5,0.6,6.7,1c0.1,0.1,0.1,0.3,0.2,0.4
		c0.1,0.1,0.2,0.3,0.2,0.4c0,0.2,0,0.3,0,0.4c0,0.1,0,0.3,0,0.5l-0.5,1c-0.2,0.1-0.4,0.2-0.6,0.3s-0.4,0.2-0.7,0.2
		c-0.2,0-0.5,0-0.7,0s-0.5,0-0.7,0c-0.8-0.1-1.6-0.2-2.4-0.4c-0.8-0.1-1.6-0.2-2.4-0.4c-0.8-0.1-1.6-0.2-2.5-0.2s-1.7,0-2.5-0.1
		c-0.6,1.6-1.1,3.1-1.6,4.7c-0.5,1.6-0.9,3.1-1.3,4.7c-0.3,1.6-0.8,3.1-1.2,4.7c-0.5,1.6-1,3.1-1.5,4.6c-0.1,0.1-0.2,0.1-0.4,0.2
		s-0.3,0.2-0.4,0.2c-0.2,0-0.3,0-0.4,0S332.3,75.1,332.1,75.1z M345.9,45.9c-1.4-0.5-2.8-0.8-4.3-1c-1.5-0.2-3-0.3-4.5-0.4
		s-3-0.2-4.5-0.2c-1.5-0.1-3-0.3-4.4-0.8c-0.1-0.1-0.1-0.2-0.2-0.4c-0.1-0.1-0.2-0.3-0.2-0.4c0-0.2,0-0.3,0-0.4c0-0.1,0-0.3,0-0.5
		l0.5-0.9c0.2-0.2,0.4-0.3,0.7-0.4c0.3-0.1,0.6-0.1,0.8-0.1s0.6,0,0.8,0s0.6,0,0.9,0c1.3,0.1,2.7,0.2,4,0.3s2.7,0.2,4.1,0.3
		s2.7,0.3,4,0.5c1.3,0.2,2.6,0.6,3.8,1.2c0.1,0.1,0.1,0.3,0.2,0.4c0.1,0.1,0.2,0.3,0.2,0.4c0,0.2,0,0.3,0,0.4c0,0.1,0,0.3,0,0.5
		l-0.5,0.9c-0.1,0.1-0.2,0.1-0.3,0.2c-0.1,0.1-0.2,0.1-0.3,0.2c-0.1,0.1-0.2,0.1-0.4,0.1S346,45.8,345.9,45.9z"/>
	<path d="M399.5,58.7c-2.1-0.2-4.3-0.3-6.4-0.4s-4.3-0.2-6.6-0.2c-2.2-0.1-4.4-0.1-6.6-0.2c-2.2-0.1-4.3-0.1-6.5-0.1
		c-0.4,0.1-0.8,0.1-1.2,0.1c-0.4,0-0.9,0-1.3,0s-0.9,0-1.3,0.1c-0.4,0.1-0.8,0.1-1.3,0c-0.1-0.1-0.2-0.1-0.3-0.1
		c-0.1,0-0.2-0.1-0.3-0.1c-0.1,0-0.2-0.1-0.3-0.1c-0.1-0.1-0.2-0.1-0.3-0.2c-0.1-0.1-0.1-0.2-0.2-0.4c-0.1-0.1-0.2-0.3-0.2-0.4
		c0-0.2,0-0.3,0-0.5c0-0.2,0-0.3,0-0.5l0.5-0.9c0.9-0.4,1.9-0.6,3-0.6s2.1,0,3.1-0.1s2.1-0.1,3.1-0.1c1.1,0,2.1,0,3.2,0
		c1.8,0.1,3.7,0.2,5.5,0.2s3.7,0.1,5.5,0.2c1.8,0.2,3.7,0.2,5.5,0.2c1.9,0,3.7,0.2,5.3,0.8c0.1,0.1,0.1,0.3,0.2,0.4
		c0.1,0.1,0.2,0.3,0.2,0.5s0,0.3,0,0.5c0,0.1,0,0.3,0,0.5l-0.5,0.9c-0.1,0.1-0.3,0.1-0.4,0.2s-0.3,0.2-0.5,0.2
		c-0.2,0-0.4,0.1-0.5,0.1C399.8,58.7,399.7,58.7,399.5,58.7z"/>
	<path d="M428.9,58.9c-0.9-0.4-1.8-0.7-2.7-1s-1.8-0.5-2.8-0.8c-0.9-0.2-1.9-0.5-2.8-0.8c-0.9-0.2-1.8-0.5-2.8-0.8
		c-0.1-0.1-0.1-0.2-0.2-0.4c-0.1-0.1-0.2-0.3-0.2-0.4c0-0.2,0-0.3,0-0.4c0-0.1,0-0.3,0-0.5l0.5-0.9c0.2-0.1,0.4-0.2,0.5-0.4
		c0.2-0.1,0.3-0.2,0.5-0.2c0.2,0,0.4,0,0.7,0s0.5,0,0.7,0c0.8,0.4,1.7,0.7,2.6,0.8s1.8,0.4,2.6,0.7c0.8,0.3,1.7,0.5,2.5,0.8
		s1.7,0.6,2.5,1.1c0.1,0.1,0.1,0.3,0.2,0.4c0.1,0.1,0.2,0.3,0.2,0.5s0.1,0.4,0.1,0.5c0,0.2,0,0.3,0,0.5l-0.5,0.9
		c-0.1,0.1-0.2,0.1-0.4,0.2s-0.3,0.2-0.4,0.2c-0.2,0-0.3,0-0.4,0S429.1,58.9,428.9,58.9z M429.4,49.8c-0.8-0.4-1.5-0.8-2.3-1.2
		c-0.8-0.4-1.6-0.8-2.3-1.2s-1.6-0.7-2.4-1c-0.8-0.3-1.6-0.8-2.3-1.3c-0.1-0.1-0.1-0.2-0.2-0.4c-0.1-0.1-0.2-0.3-0.2-0.4
		c-0.1-0.2-0.1-0.3-0.1-0.5c0-0.2,0-0.3,0-0.5l0.5-0.9c0.1-0.1,0.2-0.1,0.4-0.2s0.3-0.2,0.4-0.2c0.2,0,0.3,0,0.4,0s0.3,0,0.5,0
		c0.8,0.4,1.5,0.8,2.3,1.1c0.8,0.3,1.6,0.7,2.3,1s1.5,0.8,2.3,1.1s1.5,0.8,2.2,1.2c0.1,0.2,0.2,0.3,0.3,0.5c0.2,0.1,0.3,0.3,0.3,0.4
		c0.1,0.2,0.1,0.3,0.1,0.5s0,0.4,0,0.6l-0.5,0.9c-0.1,0.1-0.2,0.1-0.4,0.2s-0.3,0.2-0.4,0.2c-0.2,0-0.3,0-0.4,0
		S429.6,49.8,429.4,49.8z M428.2,74.1l-0.9-0.5c-0.1-0.1-0.1-0.2-0.2-0.4c-0.1-0.1-0.2-0.3-0.2-0.4c0-0.2,0-0.3,0-0.4
		c0-0.1,0-0.3,0-0.5l0.5-0.9c1.9-1.6,3.8-3.4,5.6-5.2c1.8-1.8,3.6-3.6,5.4-5.4c1.8-1.8,3.7-3.5,5.5-5.3s3.7-3.5,5.7-5.1l1.1-0.1
		l0.9,0.5c0.1,0.1,0.1,0.3,0.2,0.4c0.1,0.1,0.2,0.3,0.2,0.4c0,0.2,0,0.3,0,0.5c0,0.2,0,0.3,0,0.5l-0.6,1c-2,1.5-3.9,3.2-5.7,5
		c-1.8,1.8-3.6,3.6-5.4,5.3c-1.8,1.7-3.7,3.5-5.4,5.3c-1.8,1.8-3.6,3.5-5.6,5.1L428.2,74.1z"/>
	<path d="M479.4,73.6c-0.6-0.1-1.2-0.2-1.8-0.2s-1.2,0-1.9-0.1c-0.6-0.1-1.2-0.1-1.8-0.1c-0.6,0-1.1-0.2-1.6-0.6
		c-0.1-0.1-0.1-0.2-0.2-0.4c-0.1-0.1-0.2-0.3-0.2-0.4c0-0.2,0-0.3,0-0.4c0-0.1,0-0.3,0-0.5l0.5-0.9c0.1-0.1,0.3-0.1,0.4-0.2
		s0.3-0.2,0.5-0.2c0.2,0,0.3,0,0.5,0s0.4,0,0.6,0l5.9,0.5l6.9-0.2l0.1-4.7c-1.1-0.2-2.3-0.5-3.5-0.7c-1.2-0.2-2.4-0.4-3.6-0.5
		s-2.4-0.2-3.6-0.3s-2.4-0.3-3.4-0.7c-0.1-0.1-0.1-0.2-0.2-0.4c-0.1-0.1-0.2-0.3-0.2-0.4c0-0.2,0-0.3,0-0.4c0-0.1,0-0.3,0-0.5
		l0.5-0.9c0.2-0.1,0.4-0.2,0.7-0.3s0.5-0.1,0.8-0.1s0.5,0,0.8,0s0.5,0,0.8,0c0.9,0.2,1.9,0.3,2.9,0.4c1,0.1,1.9,0.1,2.9,0.2
		s1.9,0.3,2.8,0.5c0.9,0.2,1.9,0.4,2.8,0.4c0-0.5,0-1,0-1.5c0-0.5,0.1-1,0.1-1.4c0.1-0.4,0.1-0.9,0.1-1.5c0-0.5,0-1,0-1.5
		c-1.2-0.2-2.3-0.4-3.5-0.6s-2.3-0.3-3.5-0.5c-1.2-0.1-2.4-0.2-3.6-0.2c-1.2,0-2.3-0.2-3.4-0.6c-0.1-0.1-0.1-0.2-0.2-0.4
		c-0.1-0.1-0.2-0.3-0.2-0.4c0-0.2,0-0.3,0-0.4c0-0.1,0-0.3,0-0.5l0.5-0.9c0.1-0.1,0.3-0.2,0.4-0.3c0.2-0.1,0.3-0.2,0.5-0.3
		c0.2-0.1,0.3-0.1,0.5-0.1s0.4,0,0.6,0c1.2,0.2,2.5,0.3,3.9,0.4c1.3,0.1,2.6,0.2,3.9,0.4c1.2,0.2,2.5,0.4,3.8,0.6s2.5,0.6,3.6,1.2
		c0.1,0.2,0.1,0.4,0.2,0.5c0.1,0.2,0.2,0.3,0.2,0.5s0,0.4,0,0.6s0,0.4,0,0.6c-0.1,1.3-0.2,2.6-0.3,3.9c-0.1,1.3-0.2,2.6-0.3,3.8
		c-0.1,1.3-0.2,2.6-0.2,3.8c0,1.3,0,2.6,0,3.9l0.1,1.5l-0.5,0.9c-0.2,0.1-0.4,0.3-0.6,0.4c-0.2,0.1-0.4,0.2-0.6,0.2s-0.4,0-0.7,0
		s-0.5,0-0.7,0l-2.5-0.1L479.4,73.6z"/>
	<path d="M523.2,53.7c-0.1-0.1-0.2-0.1-0.3-0.1c-0.1,0-0.2-0.1-0.3-0.1c-0.1,0-0.2-0.1-0.3-0.1c-0.1-0.1-0.2-0.1-0.3-0.2l-1.9-1.8
		l-3.7-3.5c-0.2-0.3-0.5-0.6-0.8-0.9s-0.6-0.6-0.9-0.8s-0.5-0.6-0.7-0.9c-0.2-0.3-0.2-0.7-0.1-1.2l0.5-0.9c0.1-0.1,0.2-0.1,0.4-0.2
		s0.3-0.2,0.4-0.2c0.2,0,0.3,0,0.4,0s0.3,0,0.5,0l0.9,0.5l2,2.2c0.3,0.2,0.6,0.4,0.9,0.7c0.3,0.3,0.6,0.5,0.9,0.8s0.6,0.6,0.8,0.8
		s0.6,0.6,0.9,0.9l0.1,0.3l1.5,1.1l0.3,0.3l0.3,0.3c0.1,0.1,0.1,0.3,0.2,0.4c0.1,0.1,0.2,0.3,0.2,0.4c0,0.2,0,0.3,0,0.4
		c0,0.1,0,0.3,0,0.5l-0.5,0.9c-0.1,0.1-0.2,0.1-0.3,0.2c-0.1,0.1-0.2,0.1-0.3,0.2c-0.1,0.1-0.2,0.1-0.4,0.1S523.4,53.7,523.2,53.7z
		 M522.9,73.6l-0.9-0.5c-0.1-0.1-0.1-0.2-0.2-0.4c-0.1-0.1-0.2-0.3-0.2-0.4c0-0.2,0-0.3,0-0.4c0-0.1,0-0.3,0-0.5l0.8-1.3
		c1.7-1.8,3.3-3.6,4.8-5.4s3.1-3.7,4.7-5.5c1.6-1.8,3.2-3.6,5-5.3c1.7-1.8,3.3-3.6,4.7-5.5l0.9-0.8l1.2-0.1l0.9,0.5
		c0.1,0.1,0.1,0.3,0.2,0.4c0.1,0.1,0.2,0.3,0.2,0.4c0,0.2,0,0.3,0,0.4c0,0.1,0,0.3,0,0.5l-0.5,0.9l-0.4,0.4H544l-0.2,0.3l-0.5,0.6
		l-1.5,1.9c-0.7,0.7-1.4,1.4-2.1,2.2c-0.7,0.8-1.4,1.5-2.1,2.2c-0.7,0.7-1.4,1.4-2.2,2.2c-0.7,0.7-1.3,1.5-1.8,2.3
		c-0.8,0.8-1.5,1.6-2.1,2.5s-1.4,1.7-2.2,2.5s-1.5,1.7-2.2,2.5c-0.7,0.8-1.4,1.7-2.1,2.5l-0.4,0.4h-0.2v0.2
		c-0.1,0.1-0.2,0.1-0.4,0.2s-0.3,0.2-0.4,0.2c-0.2,0-0.3,0-0.4,0S523,73.6,522.9,73.6z"/>
	<path d="M189.3,122.6l-0.9-0.5c-0.5-2.6-0.8-5.2-0.9-7.9s-0.2-5.4-0.2-8.1s-0.1-5.4-0.2-8.1c-0.1-2.7-0.1-5.3-0.1-8
		c0.1-0.1,0.1-0.2,0.1-0.3s0.1-0.2,0.1-0.3c0-0.1,0.1-0.2,0.1-0.3s0.1-0.2,0.2-0.3c0.1-0.1,0.2-0.1,0.4-0.2s0.3-0.2,0.4-0.2
		c0.2,0,0.3,0,0.4,0s0.3,0,0.5,0l0.9,0.5c0.4,0.9,0.5,2,0.5,3.1s0,2.2,0,3.3c0.1,1.1,0.1,2.1,0.1,3.2c0,1.1,0,2.2,0,3.2
		c1.3,0.2,2.7,0.5,4,0.8s2.7,0.7,4,1.1s2.6,0.9,3.8,1.3s2.5,0.9,3.8,1.4c0.1,0.1,0.1,0.2,0.2,0.4s0.2,0.3,0.2,0.4s0.1,0.3,0.1,0.5
		s0,0.3,0,0.5l-0.5,0.9c-0.1,0.1-0.2,0.1-0.4,0.2s-0.3,0.2-0.4,0.2s-0.3,0-0.4,0s-0.3,0-0.5,0c-1.1-0.3-2.3-0.6-3.4-1
		s-2.3-0.7-3.4-1.2s-2.3-0.8-3.4-1.1s-2.4-0.5-3.6-0.7v5.4c0.1,0.9,0.1,1.7,0.2,2.6s0.1,1.7,0.1,2.6s0,1.7,0,2.6s0.1,1.7,0.1,2.6
		l-0.5,0.9c-0.1,0.1-0.2,0.1-0.4,0.2s-0.3,0.2-0.4,0.2s-0.3,0-0.4,0S189.5,122.6,189.3,122.6z M201.4,95.4l-0.9-0.5
		c-0.3-0.5-0.5-1.1-0.6-1.7c-0.1-0.6-0.1-1.2-0.2-1.8c-0.1-0.6-0.2-1.2-0.3-1.8c-0.1-0.6-0.2-1.2-0.2-1.9c0.1-0.1,0.1-0.2,0.1-0.3
		s0.1-0.2,0.1-0.3c0-0.1,0.1-0.2,0.1-0.3s0.1-0.2,0.2-0.3c0.1-0.1,0.2-0.1,0.4-0.2s0.3-0.2,0.4-0.2c0.2,0,0.3,0,0.4,0s0.3,0,0.5,0
		l0.9,0.5c0.3,0.6,0.5,1.2,0.5,1.8s0.1,1.3,0.2,1.9c0.1,0.6,0.2,1.2,0.3,1.9c0.1,0.6,0.1,1.3,0.1,2l-0.5,0.9
		c-0.1,0.1-0.2,0.1-0.4,0.2s-0.3,0.2-0.4,0.2c-0.2,0-0.3,0-0.4,0S201.6,95.4,201.4,95.4z M208.4,95.3l-0.9-0.5
		c-0.3-0.5-0.5-1.1-0.6-1.7c-0.1-0.6-0.1-1.2-0.2-1.8c-0.1-0.6-0.1-1.2-0.2-1.8c-0.1-0.6-0.2-1.2-0.2-1.8l0.5-0.9
		c0.1-0.1,0.2-0.1,0.4-0.2s0.3-0.2,0.4-0.2c0.2,0,0.3,0,0.4,0s0.3,0,0.5,0l0.9,0.5c0.4,0.5,0.6,1,0.7,1.6c0.1,0.6,0.1,1.2,0.2,1.8
		c0.1,0.6,0.2,1.2,0.2,1.8c0.1,0.6,0.1,1.2,0.1,1.9l-0.5,0.9c-0.1,0.1-0.2,0.1-0.4,0.2s-0.3,0.2-0.4,0.2c-0.2,0-0.3,0-0.4,0
		S208.6,95.3,208.4,95.3z"/>
	<path d="M235.2,101.7c-0.1-0.1-0.2-0.1-0.3-0.1s-0.2-0.1-0.3-0.1s-0.2-0.1-0.3-0.1s-0.2-0.1-0.3-0.2l-1.9-1.8l-3.7-3.5
		c-0.2-0.3-0.5-0.6-0.8-0.9s-0.6-0.6-0.9-0.8s-0.5-0.6-0.7-0.9c-0.2-0.3-0.2-0.7-0.1-1.2l0.5-0.9c0.1-0.1,0.2-0.1,0.4-0.2
		s0.3-0.2,0.4-0.2c0.2,0,0.3,0,0.4,0s0.3,0,0.5,0l0.9,0.5l2,2.2c0.3,0.2,0.6,0.4,0.9,0.7c0.3,0.3,0.6,0.5,0.9,0.8s0.6,0.6,0.8,0.8
		s0.6,0.6,0.9,0.9l0.1,0.3l1.5,1.1l0.3,0.3l0.3,0.3c0.1,0.1,0.1,0.3,0.2,0.4c0.1,0.1,0.2,0.3,0.2,0.4c0,0.2,0,0.3,0,0.4
		c0,0.1,0,0.3,0,0.5l-0.5,0.9c-0.1,0.1-0.2,0.1-0.3,0.2s-0.2,0.1-0.3,0.2s-0.2,0.1-0.4,0.1S235.4,101.7,235.2,101.7z M234.9,121.6
		l-0.9-0.5c-0.1-0.1-0.1-0.2-0.2-0.4s-0.2-0.3-0.2-0.4s0-0.3,0-0.4s0-0.3,0-0.5l0.8-1.3c1.7-1.8,3.3-3.6,4.8-5.4s3.1-3.7,4.7-5.5
		s3.2-3.6,5-5.3s3.3-3.6,4.7-5.5l0.9-0.8l1.2-0.1l0.9,0.5c0.1,0.1,0.1,0.3,0.2,0.4c0.1,0.1,0.2,0.3,0.2,0.4c0,0.2,0,0.3,0,0.4
		c0,0.1,0,0.3,0,0.5l-0.5,0.9l-0.4,0.4H256l-0.2,0.3l-0.5,0.6l-1.5,1.9c-0.7,0.7-1.4,1.4-2.1,2.2s-1.4,1.5-2.1,2.2s-1.4,1.4-2.2,2.2
		s-1.3,1.5-1.8,2.3c-0.8,0.8-1.5,1.6-2.1,2.5s-1.4,1.7-2.2,2.5s-1.5,1.7-2.2,2.5s-1.4,1.7-2.1,2.5l-0.4,0.4h-0.2v0.2
		c-0.1,0.1-0.2,0.1-0.4,0.2s-0.3,0.2-0.4,0.2s-0.3,0-0.4,0S235,121.6,234.9,121.6z"/>
	<path d="M288.9,123.8l-0.9-0.5c-0.5-1-0.8-2.1-0.8-3.3s-0.1-2.4-0.2-3.5s-0.2-2.3-0.3-3.5s-0.2-2.4-0.3-3.6h-1.7
		c-0.9,0.1-1.7,0.1-2.6,0.2s-1.7,0.2-2.6,0.2s-1.7,0.1-2.5,0.3s-1.6,0.3-2.4,0.5c-0.1-0.1-0.2-0.1-0.3-0.1s-0.2-0.1-0.3-0.1
		s-0.2-0.1-0.3-0.1s-0.2-0.1-0.3-0.2c-0.1-0.1-0.1-0.2-0.2-0.4s-0.2-0.3-0.2-0.4s0-0.3,0-0.4s0-0.3,0-0.5l0.5-0.9c1-0.4,2-0.7,3-0.9
		c1-0.2,2.1-0.3,3.2-0.4s2.2-0.1,3.2-0.2s2.2-0.2,3.3-0.2v-3.8c-0.1-0.3-0.1-0.7-0.1-1s-0.1-0.7-0.1-1.1s-0.1-0.7-0.1-1.1
		c0-0.4,0-0.8-0.1-1.1h-0.2l-9.3,0.8c-0.1-0.1-0.2-0.1-0.3-0.1c-0.1,0-0.2-0.1-0.3-0.1c-0.1,0-0.2-0.1-0.3-0.1
		c-0.1-0.1-0.2-0.1-0.3-0.2c-0.1-0.1-0.1-0.2-0.2-0.4c-0.1-0.1-0.2-0.3-0.2-0.4c0-0.2,0-0.3,0-0.4c0-0.1,0-0.3,0-0.5l0.5-0.9
		c0.8-0.4,1.6-0.6,2.5-0.6c0.9,0,1.8-0.1,2.7-0.2s1.8-0.2,2.7-0.2c0.9-0.1,1.8-0.1,2.7-0.1v-0.5l-0.3-5.2c0.1-0.1,0.1-0.2,0.1-0.3
		s0.1-0.2,0.1-0.3c0-0.1,0.1-0.2,0.1-0.3s0.1-0.2,0.2-0.3c0.1-0.1,0.2-0.1,0.4-0.2s0.3-0.2,0.4-0.2c0.2,0,0.3,0,0.4,0s0.3,0,0.5,0
		l0.9,0.5c0.4,0.4,0.5,1,0.5,1.5c0,0.6,0,1.2,0,1.7s0.1,1.1,0.1,1.7s0.1,1.1,0.1,1.7h2.9l6.2-0.2c0.2,0.1,0.4,0.1,0.6,0.1
		s0.4,0,0.7,0s0.4,0,0.6,0.1s0.4,0.2,0.6,0.3c0.1,0.1,0.1,0.3,0.2,0.4c0.1,0.1,0.2,0.3,0.2,0.4c0,0.2,0,0.3,0,0.5c0,0.2,0,0.3,0,0.5
		l-0.5,0.9c-0.2,0.1-0.4,0.2-0.5,0.3s-0.3,0.1-0.6,0.1s-0.4,0-0.7,0s-0.4,0-0.6,0l-3.2-0.1l-5.7,0.2v0.4c0.1,0.6,0.2,1.2,0.3,1.9
		s0.1,1.2,0.2,1.9s0.1,1.3,0.1,2s0,1.3,0,2h0.7c1-0.1,2-0.2,3-0.3s2-0.2,3-0.3s2-0.2,3.1-0.2s2.1-0.1,3.1-0.1l0.9,0.5
		c0.1,0.1,0.1,0.2,0.2,0.4s0.2,0.3,0.2,0.4s0,0.3,0,0.4s0,0.3,0,0.5l-0.5,0.9c-1,0.4-2.1,0.7-3.3,0.7s-2.3,0.1-3.5,0.2
		s-2.3,0.2-3.4,0.3s-2.3,0.2-3.4,0.3v0.2l1.2,13l-0.5,0.9c-0.1,0.1-0.2,0.1-0.4,0.2s-0.3,0.2-0.4,0.2s-0.3,0-0.4,0
		S289.1,123.8,288.9,123.8z"/>
	<path d="M351.5,106.7c-2.1-0.2-4.3-0.3-6.4-0.4s-4.3-0.2-6.6-0.2s-4.4-0.1-6.6-0.2s-4.3-0.1-6.5-0.1c-0.4,0.1-0.8,0.1-1.2,0.1
		s-0.9,0-1.3,0s-0.9,0-1.3,0.1s-0.8,0.1-1.3,0c-0.1-0.1-0.2-0.1-0.3-0.1s-0.2-0.1-0.3-0.1s-0.2-0.1-0.3-0.1s-0.2-0.1-0.3-0.2
		c-0.1-0.1-0.1-0.2-0.2-0.4s-0.2-0.3-0.2-0.4s0-0.3,0-0.5s0-0.3,0-0.5l0.5-0.9c0.9-0.4,1.9-0.6,3-0.6s2.1,0,3.1-0.1s2.1-0.1,3.1-0.1
		s2.1,0,3.2,0c1.8,0.1,3.7,0.2,5.5,0.2s3.7,0.1,5.5,0.2s3.7,0.2,5.5,0.2s3.7,0.2,5.3,0.8c0.1,0.1,0.1,0.2,0.2,0.4s0.2,0.3,0.2,0.5
		s0,0.3,0,0.5s0,0.3,0,0.5l-0.5,0.9c-0.1,0.1-0.3,0.1-0.4,0.2s-0.3,0.2-0.5,0.2s-0.4,0.1-0.5,0.1S351.7,106.7,351.5,106.7z"/>
</g>
</svg>
