<?xml version="1.0" standalone="no"?>
<!DOCTYPE svg PUBLIC "-//W3C//DTD SVG 20010904//EN"
 "http://www.w3.org/TR/2001/REC-SVG-20010904/DTD/svg10.dtd">
<svg version="1.0" xmlns="http://www.w3.org/2000/svg"
 width="270.000000pt" height="260.000000pt" viewBox="0 0 270.000000 260.000000"
 preserveAspectRatio="xMidYMid meet">

<g transform="translate(0.000000,260.000000) scale(0.100000,-0.100000)"
fill="#000000" stroke="none">
<path d="M156 2436 c-18 -74 -19 -86 -8 -86 4 0 12 15 17 33 9 30 14 32 58 35
26 2 47 -1 47 -6 0 -4 -7 -32 -16 -61 -8 -29 -14 -62 -12 -74 3 -15 10 -2 21
38 28 95 35 108 57 102 11 -3 22 -1 25 3 5 8 -119 24 -145 18 -10 -2 -15 5
-15 24 0 50 -12 39 -29 -26z"/>
<path d="M455 2479 c-4 -5 26 -10 69 -10 116 -2 116 -2 82 -52 -14 -20 -21
-39 -16 -42 12 -7 72 87 62 97 -11 11 -191 18 -197 7z"/>
<path d="M1130 2481 c0 -6 15 -11 34 -11 18 0 49 -3 67 -6 23 -5 31 -3 24 4
-15 14 -125 26 -125 13z"/>
<path d="M1740 2469 c0 -11 60 -42 68 -35 7 7 -26 33 -50 39 -10 3 -18 1 -18
-4z"/>
<path d="M790 2460 c0 -5 25 -10 55 -10 30 0 55 -4 55 -10 0 -5 -21 -41 -46
-80 -25 -39 -43 -74 -39 -78 4 -4 12 1 19 12 6 10 19 28 28 40 l17 21 35 -34
c47 -46 58 -33 12 13 -20 19 -36 38 -36 41 0 3 11 22 25 43 18 27 21 38 12 44
-18 11 -137 10 -137 -2z"/>
<path d="M2375 2435 c40 -33 69 -33 32 0 -15 14 -36 25 -45 25 -12 0 -9 -7 13
-25z"/>
<path d="M2477 2374 c-67 -71 -84 -94 -68 -94 11 0 141 139 141 151 0 17 -10
9 -73 -57z"/>
<path d="M540 2350 c0 -47 4 -80 10 -80 6 0 10 33 10 80 0 47 -4 80 -10 80 -6
0 -10 -33 -10 -80z"/>
<path d="M1851 2350 c-41 -39 -71 -73 -68 -76 6 -7 157 126 157 139 0 16 -19
3 -89 -63z"/>
<path d="M2096 2411 c5 -5 25 -11 44 -13 27 -2 36 -8 38 -24 3 -20 0 -21 -42
-17 -58 7 -62 -12 -5 -20 48 -6 54 -11 45 -32 -4 -12 -16 -16 -46 -14 -21 2
-42 0 -46 -3 -8 -9 57 -21 87 -16 22 3 24 8 27 69 3 62 1 67 -20 73 -36 9 -93
7 -82 -3z"/>
<path d="M1095 2400 c3 -5 24 -10 46 -10 44 0 44 0 24 -66 -18 -58 -17 -54 -6
-54 4 0 14 21 21 48 18 65 28 75 68 68 23 -3 32 -1 29 7 -2 8 -35 13 -96 15
-62 2 -91 -1 -86 -8z"/>
<path d="M1720 2403 c0 -11 71 -35 79 -28 9 9 -14 25 -47 31 -18 4 -32 2 -32
-3z"/>
<path d="M1390 2393 c0 -10 210 -27 219 -18 12 12 -16 18 -113 22 -67 4 -106
2 -106 -4z"/>
<path d="M257 2183 c-4 -6 -3 -21 1 -34 5 -13 11 -18 15 -12 4 6 3 21 -1 34
-5 13 -11 18 -15 12z"/>
<path d="M300 2161 c0 -11 5 -23 10 -26 6 -4 10 5 10 19 0 14 -4 26 -10 26 -5
0 -10 -9 -10 -19z"/>
<path d="M819 2173 c-1 -4 -2 -15 -3 -23 0 -9 -13 -16 -33 -18 -44 -4 -42 -22
3 -22 33 0 35 -2 32 -27 -2 -23 -8 -29 -35 -31 -46 -5 -41 -24 5 -20 37 3 37
3 40 -39 2 -24 8 -43 13 -43 6 0 9 18 7 43 l-3 42 43 3 c57 4 54 22 -4 22 -44
0 -45 1 -42 28 2 22 8 28 36 30 43 4 41 22 -3 22 -24 0 -35 5 -35 14 0 16 -19
33 -21 19z"/>
<path d="M170 2113 c0 -78 11 -164 20 -158 4 2 5 28 2 56 l-5 52 34 -8 c76
-16 84 -17 76 -9 -5 5 -29 16 -55 25 -45 15 -47 17 -50 57 -5 63 -22 50 -22
-15z"/>
<path d="M430 2141 c0 -13 60 -55 67 -47 6 6 -16 27 -49 47 -11 6 -18 6 -18 0z"/>
<path d="M536 2044 c-38 -41 -65 -78 -61 -82 7 -7 145 133 145 149 0 19 -17 5
-84 -67z"/>
<path d="M1040 2071 c0 -8 208 -21 219 -15 1 2 0 7 -4 13 -8 13 -215 15 -215
2z"/>
<path d="M820 1811 c-20 -39 -41 -168 -45 -286 -3 -66 -5 -122 -5 -124 0 -2
-25 22 -55 52 -30 31 -82 75 -117 98 -105 72 -256 126 -273 99 -4 -7 36 -98
95 -216 119 -237 118 -228 38 -351 -69 -106 -88 -153 -88 -222 0 -108 66 -166
180 -158 71 4 108 20 220 93 39 25 74 43 79 39 12 -7 -58 -168 -116 -268 -38
-64 -46 -87 -47 -132 -1 -63 25 -108 67 -113 26 -3 34 10 52 93 8 39 33 77 45
70 6 -4 10 -74 10 -164 0 -175 7 -199 52 -188 30 8 49 44 83 156 38 127 58
242 46 254 -18 18 -26 -1 -50 -110 -22 -102 -63 -238 -75 -250 -3 -4 -8 -4
-11 -1 -3 2 -8 163 -12 356 -7 401 1 376 -97 317 l-58 -35 -34 29 c-38 34 -39
35 -168 60 -55 11 -104 25 -109 30 -6 6 13 44 51 103 66 101 82 136 82 175 0
14 -41 106 -91 205 -50 99 -88 182 -85 186 8 7 125 -44 181 -79 60 -38 137
-111 181 -171 57 -77 64 -68 64 79 0 150 18 305 34 300 6 -2 24 -41 41 -88 27
-78 29 -96 31 -239 l2 -155 36 -31 c20 -17 55 -36 79 -42 23 -6 196 -14 392
-17 193 -3 420 -10 505 -16 l155 -10 38 -40 39 -40 -4 -93 c-3 -84 -7 -100
-40 -167 -21 -41 -47 -109 -58 -153 -24 -94 -75 -202 -128 -271 -62 -82 -66
-76 -73 125 -6 188 -13 230 -36 230 -12 0 -14 -13 -7 -77 4 -43 8 -134 9 -203
1 -69 5 -133 9 -143 5 -9 20 -20 34 -24 22 -5 33 1 73 45 75 82 137 208 161
326 7 34 22 77 33 96 32 52 65 146 65 186 0 40 15 38 32 -4 25 -64 37 -144 38
-243 0 -101 -1 -106 -26 -128 -29 -26 -79 -126 -69 -141 13 -20 26 -9 51 45
15 30 30 55 35 55 5 0 9 -27 9 -60 0 -46 3 -60 15 -60 19 0 29 41 22 85 -6 38
3 49 32 40 21 -6 41 -45 41 -80 0 -29 16 -41 35 -25 12 10 12 18 0 58 -16 53
-54 92 -90 92 -24 0 -24 1 -19 78 7 93 -8 210 -37 287 -28 75 -116 204 -154
226 -38 22 -320 38 -758 44 l-308 4 -45 26 c-24 14 -44 29 -45 33 0 4 -1 68
-2 142 -3 152 -20 232 -73 348 -34 75 -46 85 -64 53z m-341 -925 c31 -8 81
-20 111 -27 61 -13 100 -35 100 -54 0 -19 -58 -52 -111 -64 -60 -13 -110 1
-143 40 -26 30 -43 90 -31 108 8 14 8 14 74 -3z m381 -270 c0 -72 -1 -74 -35
-100 -27 -21 -39 -41 -53 -87 -17 -58 -34 -74 -46 -43 -15 40 -4 83 44 167 28
48 50 89 50 91 0 3 4 17 10 31 17 44 30 18 30 -59z"/>
<path d="M477 843 c-12 -12 -7 -22 19 -39 20 -13 28 -14 37 -5 9 10 7 17 -12
32 -25 20 -34 23 -44 12z"/>
<path d="M670 1035 c-45 -16 -47 -41 -2 -38 36 1 62 18 62 39 0 16 -12 16 -60
-1z"/>
<path d="M1710 643 c-180 -35 -274 -46 -425 -46 -88 0 -179 4 -203 10 -36 9
-44 9 -49 -3 -8 -20 -4 -23 63 -36 82 -16 297 -13 428 6 61 9 114 12 118 8 5
-5 4 -55 -1 -112 -14 -135 -14 -140 7 -140 29 1 59 32 102 109 31 55 39 76 30
85 -14 13 -29 -5 -66 -76 -31 -60 -47 -62 -40 -5 3 23 8 67 11 99 l6 56 50 12
c28 7 49 18 49 25 0 21 -10 22 -80 8z"/>
<path d="M520 462 c-23 -7 -60 -44 -76 -74 -18 -35 -25 -35 -46 2 -21 36 -74
70 -110 70 -26 0 -28 -3 -28 -45 0 -69 61 -169 122 -201 16 -8 29 -25 33 -44
9 -40 25 -38 25 3 0 28 5 34 40 49 49 20 65 54 75 154 8 73 -2 97 -35 86z
m-188 -51 c15 -8 36 -33 48 -57 28 -61 49 -58 94 16 21 33 41 60 45 60 13 0 0
-102 -17 -140 -20 -40 -68 -57 -114 -39 -26 11 -68 68 -96 132 -12 27 -8 51 6
44 4 -2 19 -9 34 -16z"/>
</g>
</svg>
